<svg class="animated" id="freepik_stories-code-snippets" xmlns="http://www.w3.org/2000/svg" viewBox="0 0 500 500" version="1.1" xmlns:xlink="http://www.w3.org/1999/xlink" xmlns:svgjs="http://svgjs.com/svgjs"><style>svg#freepik_stories-code-snippets:not(.animated) .animable {opacity: 0;}svg#freepik_stories-code-snippets.animated #freepik--background-complete--inject-60 {animation: 1s 1 forwards cubic-bezier(.36,-0.01,.5,1.38) slideDown;animation-delay: 0s;}svg#freepik_stories-code-snippets.animated #freepik--Tab--inject-60 {animation: 3s Infinite  linear floating;animation-delay: 0s;}svg#freepik_stories-code-snippets.animated #freepik--Code--inject-60 {animation: 3s Infinite  linear floating;animation-delay: -0.5s;}svg#freepik_stories-code-snippets.animated #freepik--Plant--inject-60 {animation: 1s 1 forwards cubic-bezier(.36,-0.01,.5,1.38) slideDown;animation-delay: 0s;}svg#freepik_stories-code-snippets.animated #freepik--Character--inject-60 {animation: 3s Infinite  linear wind;animation-delay: 0s;}            @keyframes slideDown {                0% {                    opacity: 0;                    transform: translateY(-30px);                }                100% {                    opacity: 1;                    transform: translateY(0);                }            }                    @keyframes floating {                0% {                    opacity: 1;                    transform: translateY(0px);                }                50% {                    transform: translateY(-10px);                }                100% {                    opacity: 1;                    transform: translateY(0px);                }            }                    @keyframes wind {                0% {                    transform: rotate( 0deg );                }                25% {                    transform: rotate( 1deg );                }                75% {                    transform: rotate( -1deg );                }            }        </style><g id="freepik--background-complete--inject-60" class="animable animator-active" style="transform-origin: 252.19px 252.69px;"><path d="M430,56.29a1.85,1.85,0,0,1,.91,1.72c0,.19,0,.39,0,.58s0,.39,0,.58a1.86,1.86,0,0,1-.9,1.72l-2.09,1.2,3.92,6.78,2.08-1.2a1.85,1.85,0,0,1,1.95.07c.32.21.66.4,1,.58a1.85,1.85,0,0,1,1,1.65v2.4h7.83V70a1.85,1.85,0,0,1,1-1.65c.34-.18.68-.37,1-.58a1.85,1.85,0,0,1,1.95-.07l2.08,1.2,3.91-6.78-2.08-1.21a1.84,1.84,0,0,1-.91-1.72c0-.19,0-.38,0-.57s0-.39,0-.58a1.85,1.85,0,0,1,.91-1.72l2.08-1.2-3.91-6.78-2.07,1.2a1.85,1.85,0,0,1-2-.07,10.14,10.14,0,0,0-1-.58,1.86,1.86,0,0,1-1-1.66V44.81H437.9V47.2a1.86,1.86,0,0,1-1,1.66,10.14,10.14,0,0,0-1,.58,1.85,1.85,0,0,1-1.95.07l-2.07-1.2-3.92,6.78Zm11.81-4.11a6.41,6.41,0,1,1-6.4,6.41A6.41,6.41,0,0,1,441.81,52.18Z" style="fill: rgb(235, 235, 235); transform-origin: 441.78px 58.59px;" id="elnskpw6fpxx" class="animable"></path><path d="M156.43,362.35a30.47,30.47,0,1,0,30.47-30.47A30.47,30.47,0,0,0,156.43,362.35Zm16.23,0a14.24,14.24,0,1,1,14.24,14.23A14.24,14.24,0,0,1,172.66,362.35Z" style="fill: rgb(235, 235, 235); transform-origin: 186.9px 362.35px;" id="eljidysuktnh" class="animable"></path><polygon points="181.04 333.14 192.76 333.14 192.11 324.85 181.69 324.85 181.04 333.14" style="fill: rgb(235, 235, 235); transform-origin: 186.9px 328.995px;" id="elmf0g6i3y34" class="animable"></polygon><polygon points="203.34 337.09 211.63 345.38 217.04 339.05 209.67 331.68 203.34 337.09" style="fill: rgb(235, 235, 235); transform-origin: 210.19px 338.53px;" id="eldmqet6x2xu6" class="animable"></polygon><polygon points="216.32 355.65 216.32 367.37 224.62 366.72 224.62 356.3 216.32 355.65" style="fill: rgb(235, 235, 235); transform-origin: 220.47px 361.51px;" id="els6vmx5hoipg" class="animable"></polygon><polygon points="212.38 377.96 204.09 386.24 210.41 391.65 217.78 384.28 212.38 377.96" style="fill: rgb(235, 235, 235); transform-origin: 210.935px 384.805px;" id="elskzwzr31ria" class="animable"></polygon><polygon points="193.81 390.94 182.09 390.94 182.74 399.23 193.16 399.23 193.81 390.94" style="fill: rgb(235, 235, 235); transform-origin: 187.95px 395.085px;" id="elg3p28wdpkki" class="animable"></polygon><polygon points="171.51 386.99 163.22 378.7 157.81 385.03 165.19 392.4 171.51 386.99" style="fill: rgb(235, 235, 235); transform-origin: 164.66px 385.55px;" id="elh8wy5u385iq" class="animable"></polygon><polygon points="158.53 368.43 158.53 356.71 150.23 357.36 150.23 367.78 158.53 368.43" style="fill: rgb(235, 235, 235); transform-origin: 154.38px 362.57px;" id="elv47z85i24ll" class="animable"></polygon><polygon points="162.48 346.12 170.76 337.84 164.44 332.43 157.07 339.8 162.48 346.12" style="fill: rgb(235, 235, 235); transform-origin: 163.915px 339.275px;" id="elz6xtlelljbd" class="animable"></polygon><path d="M85,144.45a3.21,3.21,0,0,1-2-6.1c7.22-2.24,8.26-4.54,8.26-9.6,0-1.49-.15-3.94-.15-5.51,0-5.8,2.75-8.55,7.74-10.19-4.91-1.56-7.74-4.39-7.74-10.19,0-1.56.15-4,.15-5.51,0-5-1-7.36-8.26-9.59a3.21,3.21,0,0,1,2-6.1C96.48,84.19,99.53,88.8,99.53,96c0,1.11-.15,4.09-.15,5.35,0,5.51,1.94,7.89,7,8.11,2.39.15,3.8,1.56,3.8,3.57s-1.41,3.42-3.8,3.57c-5.05.15-7,2.61-7,8,0,1.26.15,4.24.15,5.35C99.53,137.3,96.48,141.92,85,144.45Z" style="fill: rgb(235, 235, 235); transform-origin: 95.5038px 113.055px;" id="elih5v7rzw9s" class="animable"></path><path d="M69.52,81.66a3.2,3.2,0,0,1,1.93,6.1c-7.14,2.23-8.18,4.54-8.18,9.59,0,1.49.15,4,.15,5.51,0,5.8-2.76,8.55-7.74,10.19,4.91,1.56,7.74,4.39,7.74,10.19,0,1.57-.15,4-.15,5.51,0,5.06,1,7.36,8.18,9.6a3.08,3.08,0,0,1,2.16,3.05,3.13,3.13,0,0,1-4.09,3C58,141.92,54.94,137.3,54.94,130c0-1.11.14-4.09.14-5.35,0-5.43-2-7.89-7.06-8-2.31-.15-3.72-1.56-3.72-3.57s1.41-3.42,3.72-3.57c5.06-.22,7.06-2.6,7.06-8.11,0-1.26-.14-4.24-.14-5.35C54.94,88.8,58,84.19,69.52,81.66Z" style="fill: rgb(235, 235, 235); transform-origin: 58.956px 113.042px;" id="elngtj2m2qah" class="animable"></path><path d="M353.92,325.85a3.4,3.4,0,0,1-2.36,5.82,3.58,3.58,0,0,1-2.48-1L334,315.35c-.17-.05-.22-.16-.27-.32a.55.55,0,0,0-.17-.11,1.47,1.47,0,0,1-.15-.43.28.28,0,0,1-.17-.22c-.05-.11-.05-.27-.1-.32s-.12-.21-.12-.27v-.38c0-.11-.05-.16-.05-.32s.05-.22.05-.27v-.37c0-.11.12-.17.12-.22s.05-.27.1-.44.05-.05.05-.1.17-.38.27-.48a.11.11,0,0,1,.12-.11.9.9,0,0,1,.32-.38l15.13-15.35a3.51,3.51,0,0,1,4.84,0,3.39,3.39,0,0,1,0,4.85L341.17,313Z" style="fill: rgb(235, 235, 235); transform-origin: 343.981px 312.981px;" id="eltb0gj8cejy" class="animable"></path><path d="M367.64,327.58l13.2-31.41a3,3,0,0,1,3.93-1.55,2.91,2.91,0,0,1,1.51,3.82l-13.2,31.45a3,3,0,0,1-2.75,1.78,2.55,2.55,0,0,1-1.07-.21A2.92,2.92,0,0,1,367.64,327.58Z" style="fill: rgb(235, 235, 235); transform-origin: 376.959px 313.024px;" id="el9n7hk9inzyt" class="animable"></path><path d="M412.33,314.92a0,0,0,0,1-.05.05,2.72,2.72,0,0,1-.38.38L396.77,330.7a3.52,3.52,0,0,1-4.85,0,3.41,3.41,0,0,1,0-4.85L404.68,313l-12.76-12.87a3.41,3.41,0,0,1,0-4.85,3.52,3.52,0,0,1,4.85,0l15.13,15.35a2.72,2.72,0,0,1,.38.38c.05,0,.05.11.05.11.11.21.21.32.28.48s.05.05.05.1a2,2,0,0,0,.16.49c0,.06.05.06.05.17v.37c0,.05.06.21.06.27s-.06.21-.06.27v.43c0,.06-.05.06-.05.11a3.28,3.28,0,0,0-.16.48c0,.06-.05.06-.05.16A5.23,5.23,0,0,0,412.33,314.92Z" style="fill: rgb(235, 235, 235); transform-origin: 401.919px 312.99px;" id="elmjl5rfkmym" class="animable"></path><path d="M335.83,229.33H92.06V45.17H335.83Zm-242.77-1H334.83V46.17H93.06Z" style="fill: rgb(235, 235, 235); transform-origin: 213.945px 137.25px;" id="elxxmbw6hl0co" class="animable"></path><path d="M101.17,50.33A2.31,2.31,0,1,1,98.86,48,2.32,2.32,0,0,1,101.17,50.33Z" style="fill: rgb(166, 166, 166); transform-origin: 98.8601px 50.31px;" id="elkb4c1tkxbwt" class="animable"></path><path d="M110.59,50.33A2.31,2.31,0,1,1,108.28,48,2.31,2.31,0,0,1,110.59,50.33Z" style="fill: rgb(235, 235, 235); transform-origin: 108.28px 50.31px;" id="el3j2tujfdiea" class="animable"></path><path d="M120,50.33a2.31,2.31,0,1,1-2.3-2.31A2.31,2.31,0,0,1,120,50.33Z" style="fill: rgb(39, 241, 255); transform-origin: 117.69px 50.33px;" id="el4t9iss3t6g5" class="animable"></path><rect x="92.56" y="54.35" width="242.77" height="1" style="fill: rgb(235, 235, 235); transform-origin: 213.945px 54.85px;" id="elmcx8wqaiep8" class="animable"></rect><polygon points="244.25 432.13 455.68 432.13 460.08 345.38 239.85 345.38 244.25 432.13" style="fill: rgb(235, 235, 235); transform-origin: 349.965px 388.755px;" id="elwv44giqcvf" class="animable"></polygon><path d="M445.66,385.09H357.27L355.61,355h92ZM358.28,384h86.38l1.8-28H356.74Z" style="fill: rgb(219, 219, 219); transform-origin: 401.61px 370.045px;" id="elsdvgunajg3" class="animable"></path><path d="M444,419.74h-83.3l-1.35-27.19h86.35Zm-82.29-1.07H443l1.56-25.05H360.5Z" style="fill: rgb(219, 219, 219); transform-origin: 402.525px 406.145px;" id="elen2tpa0tmju" class="animable"></path><path d="M410,373.3H395.12l-.94-7.27h16.73Zm-13.91-1.07h13l.66-5.13H395.4Z" style="fill: rgb(219, 219, 219); transform-origin: 402.545px 369.665px;" id="eljjqfaundy6c" class="animable"></path><path d="M410,409.78H395.12l-.94-7.27h16.73Zm-13.91-1.07h13l.66-5.13H395.4Z" style="fill: rgb(219, 219, 219); transform-origin: 402.545px 406.145px;" id="elxuapfo69t5" class="animable"></path><path d="M341.69,385.09h-88.4L251.63,355h92ZM254.3,384h86.39l1.79-28H252.76Z" style="fill: rgb(219, 219, 219); transform-origin: 297.63px 370.045px;" id="els13os4lcl4" class="animable"></path><path d="M340.06,419.74h-83.3l-1.36-27.19h86.35Zm-82.29-1.07h81.28l1.57-25.05h-84.1Z" style="fill: rgb(219, 219, 219); transform-origin: 298.575px 406.145px;" id="elhz2xba6fbq" class="animable"></path><path d="M306,373.3H291.15l-.94-7.27h16.73Zm-13.91-1.07h13l.67-5.13H291.42Z" style="fill: rgb(219, 219, 219); transform-origin: 298.575px 369.665px;" id="elpkcr6oj7den" class="animable"></path><path d="M306,409.78H291.15l-.94-7.27h16.73Zm-13.91-1.07h13l.67-5.13H291.42Z" style="fill: rgb(219, 219, 219); transform-origin: 298.575px 406.145px;" id="elx9pfpze9fwm" class="animable"></path><polygon points="263.21 432.13 261.88 441.58 259.21 460.57 253.99 460.57 253.99 432.13 263.21 432.13" style="fill: rgb(235, 235, 235); transform-origin: 258.6px 446.35px;" id="elsbmpjalziyc" class="animable"></polygon><polygon points="263.21 432.13 261.88 441.58 253.99 441.58 253.99 432.13 263.21 432.13" style="fill: rgb(219, 219, 219); transform-origin: 258.6px 436.855px;" id="elyatyygb7v1" class="animable"></polygon><polygon points="436.72 432.13 438.05 441.58 440.72 460.57 445.94 460.57 445.94 432.13 436.72 432.13" style="fill: rgb(235, 235, 235); transform-origin: 441.33px 446.35px;" id="elba2f1k31zgg" class="animable"></polygon><polygon points="436.72 432.13 438.05 441.58 445.94 441.58 445.94 432.13 436.72 432.13" style="fill: rgb(219, 219, 219); transform-origin: 441.33px 436.855px;" id="eldj1agthmylt" class="animable"></polygon></g><g id="freepik--Tab--inject-60" class="animable" style="transform-origin: 285.28px 175.915px;"><rect x="126.28" y="62.92" width="318" height="225.99" style="fill: rgb(38, 50, 56); transform-origin: 285.28px 175.915px;" id="eltsfr6uyuges" class="animable"></rect><rect x="126.28" y="62.92" width="318" height="9.42" style="fill: rgb(69, 90, 100); transform-origin: 285.28px 67.63px;" id="elpiznx40p3v" class="animable"></rect><path d="M136.59,67.63a2.34,2.34,0,1,1-2.34-2.34A2.34,2.34,0,0,1,136.59,67.63Z" style="fill: rgb(199, 199, 199); transform-origin: 134.25px 67.63px;" id="elpxlln5pozv" class="animable"></path><path d="M146.12,67.63a2.34,2.34,0,1,1-2.33-2.34A2.33,2.33,0,0,1,146.12,67.63Z" style="fill: rgb(255, 255, 255); transform-origin: 143.78px 67.63px;" id="elvb5bjrik2pb" class="animable"></path><path d="M155.66,67.63a2.34,2.34,0,1,1-2.34-2.34A2.34,2.34,0,0,1,155.66,67.63Z" style="fill: rgb(39, 241, 255); transform-origin: 153.32px 67.63px;" id="elq4of6v1s2v" class="animable"></path><polygon points="422.3 147.51 419.3 147.51 419.3 146.51 421.3 146.51 421.3 144.51 422.3 144.51 422.3 147.51" style="fill: rgb(39, 241, 255); transform-origin: 420.8px 146.01px;" id="el5wwf9hgmd27" class="animable"></polygon><path d="M414.24,147.51h-5.05v-1h5.05Zm-10.11,0h-5.06v-1h5.06Zm-10.12,0H389v-1H394Zm-10.11,0h-5.06v-1h5.06Zm-10.12,0h-5v-1h5Zm-10.11,0h-5.06v-1h5.06Zm-10.12,0H348.5v-1h5.05Zm-10.11,0h-5.06v-1h5.06Zm-10.12,0h-5.05v-1h5.05Zm-10.11,0h-5.06v-1h5.06Zm-10.12,0h-5v-1h5Zm-10.11,0h-5.06v-1H303Zm-10.11,0h-5.06v-1h5.06Zm-10.12,0h-5.06v-1h5.06Zm-10.12,0h-5.05v-1h5.05Zm-10.11,0h-5.06v-1h5.06Zm-10.11,0h-5.06v-1h5.06Zm-10.12,0h-5.06v-1h5.06Zm-10.11,0h-5.06v-1h5.06Zm-10.12,0H217v-1h5.06Zm-10.11,0h-5.06v-1H212Zm-10.12,0h-5.06v-1h5.06Zm-10.11,0h-5.06v-1h5.06Zm-10.12,0h-5.06v-1h5.06Zm-10.11,0h-5.06v-1h5.06Zm-10.12,0h-5.06v-1h5.06Z" style="fill: rgb(39, 241, 255); transform-origin: 285.275px 147.01px;" id="el3suv5l5e4u6" class="animable"></path><polygon points="151.25 147.51 148.25 147.51 148.25 144.51 149.25 144.51 149.25 146.51 151.25 146.51 151.25 147.51" style="fill: rgb(39, 241, 255); transform-origin: 149.75px 146.01px;" id="el92omt8t3sl5" class="animable"></polygon><path d="M149.26,139.51h-1v-5h1Zm0-10h-1v-5h1Zm0-10h-1v-5h1Zm0-10h-1v-5h1Zm0-10h-1v-5h1Z" style="fill: rgb(39, 241, 255); transform-origin: 148.76px 117.01px;" id="el7vulsfdrk8f" class="animable"></path><polygon points="149.25 89.47 148.25 89.47 148.25 86.47 151.25 86.47 151.25 87.47 149.25 87.47 149.25 89.47" style="fill: rgb(39, 241, 255); transform-origin: 149.75px 87.97px;" id="elnks099fn2k" class="animable"></polygon><path d="M414.24,87.47h-5.05v-1h5.05Zm-10.11,0h-5.06v-1h5.06Zm-10.12,0H389v-1H394Zm-10.11,0h-5.06v-1h5.06Zm-10.12,0h-5v-1h5Zm-10.11,0h-5.06v-1h5.06Zm-10.12,0H348.5v-1h5.05Zm-10.11,0h-5.06v-1h5.06Zm-10.12,0h-5.05v-1h5.05Zm-10.11,0h-5.06v-1h5.06Zm-10.12,0h-5v-1h5Zm-10.11,0h-5.06v-1H303Zm-10.12,0h-5.05v-1h5.05Zm-10.11,0h-5.06v-1h5.06Zm-10.12,0h-5.05v-1h5.05Zm-10.11,0h-5.06v-1h5.06Zm-10.11,0h-5.06v-1h5.06Zm-10.12,0h-5.06v-1h5.06Zm-10.12,0h-5v-1h5Zm-10.11,0H217v-1h5.06Zm-10.11,0h-5.06v-1H212Zm-10.12,0h-5.06v-1h5.06Zm-10.11,0h-5.06v-1h5.06Zm-10.12,0h-5.06v-1h5.06Zm-10.11,0h-5.06v-1h5.06Zm-10.12,0h-5.06v-1h5.06Z" style="fill: rgb(39, 241, 255); transform-origin: 285.275px 86.97px;" id="elgyyf15wrzfw" class="animable"></path><polygon points="422.3 89.47 421.3 89.47 421.3 87.47 419.3 87.47 419.3 86.47 422.3 86.47 422.3 89.47" style="fill: rgb(39, 241, 255); transform-origin: 420.8px 87.97px;" id="elxuclqfilfbc" class="animable"></polygon><path d="M422.3,139.51h-1v-5h1Zm0-10h-1v-5h1Zm0-10h-1v-5h1Zm0-10h-1v-5h1Zm0-10h-1v-5h1Z" style="fill: rgb(39, 241, 255); transform-origin: 421.8px 117.01px;" id="elgrck4qg3bdk" class="animable"></path><polygon points="422.3 270.95 419.3 270.95 419.3 269.95 421.3 269.95 421.3 267.95 422.3 267.95 422.3 270.95" style="fill: rgb(39, 241, 255); transform-origin: 420.8px 269.45px;" id="elznot3lvsh18" class="animable"></polygon><path d="M414.24,271h-5.05v-1h5.05Zm-10.11,0h-5.06v-1h5.06ZM394,271H389v-1H394Zm-10.11,0h-5.06v-1h5.06Zm-10.12,0h-5v-1h5Zm-10.11,0h-5.06v-1h5.06Zm-10.12,0H348.5v-1h5.05Zm-10.11,0h-5.06v-1h5.06Zm-10.12,0h-5.05v-1h5.05Zm-10.11,0h-5.06v-1h5.06Zm-10.12,0h-5v-1h5ZM303,271h-5.06v-1H303Zm-10.11,0h-5.06v-1h5.06Zm-10.12,0h-5.06v-1h5.06Zm-10.12,0h-5.05v-1h5.05Zm-10.11,0h-5.06v-1h5.06Zm-10.11,0h-5.06v-1h5.06Zm-10.12,0h-5.06v-1h5.06Zm-10.11,0h-5.06v-1h5.06Zm-10.12,0H217v-1h5.06ZM212,271h-5.06v-1H212Zm-10.12,0h-5.06v-1h5.06Zm-10.11,0h-5.06v-1h5.06Zm-10.12,0h-5.06v-1h5.06Zm-10.11,0h-5.06v-1h5.06Zm-10.12,0h-5.06v-1h5.06Z" style="fill: rgb(39, 241, 255); transform-origin: 285.3px 270.5px;" id="elx989aymdufh" class="animable"></path><polygon points="151.25 270.95 148.25 270.95 148.25 267.95 149.25 267.95 149.25 269.95 151.25 269.95 151.25 270.95" style="fill: rgb(39, 241, 255); transform-origin: 149.75px 269.45px;" id="elwe0le5bb4ip" class="animable"></polygon><path d="M149.26,262.87h-1v-5.08h1Zm0-10.15h-1v-5.08h1Zm0-10.16h-1v-5.08h1Zm0-10.16h-1v-5.08h1Zm0-10.16h-1v-5.07h1Zm0-10.15h-1V207h1Z" style="fill: rgb(39, 241, 255); transform-origin: 148.76px 234.935px;" id="el9zzy2w5l3w9" class="animable"></path><polygon points="149.25 201.93 148.25 201.93 148.25 198.93 151.25 198.93 151.25 199.93 149.25 199.93 149.25 201.93" style="fill: rgb(39, 241, 255); transform-origin: 149.75px 200.43px;" id="el0oxeyu4dnto" class="animable"></polygon><path d="M414.24,199.93h-5.05v-1h5.05Zm-10.11,0h-5.06v-1h5.06Zm-10.12,0H389v-1H394Zm-10.11,0h-5.06v-1h5.06Zm-10.12,0h-5v-1h5Zm-10.11,0h-5.06v-1h5.06Zm-10.12,0H348.5v-1h5.05Zm-10.11,0h-5.06v-1h5.06Zm-10.12,0h-5.05v-1h5.05Zm-10.11,0h-5.06v-1h5.06Zm-10.12,0h-5v-1h5Zm-10.11,0h-5.06v-1H303Zm-10.12,0h-5.05v-1h5.05Zm-10.11,0h-5.06v-1h5.06Zm-10.12,0h-5.05v-1h5.05Zm-10.11,0h-5.06v-1h5.06Zm-10.11,0h-5.06v-1h5.06Zm-10.12,0h-5.06v-1h5.06Zm-10.12,0h-5v-1h5Zm-10.11,0H217v-1h5.06Zm-10.11,0h-5.06v-1H212Zm-10.12,0h-5.06v-1h5.06Zm-10.11,0h-5.06v-1h5.06Zm-10.12,0h-5.06v-1h5.06Zm-10.11,0h-5.06v-1h5.06Zm-10.12,0h-5.06v-1h5.06Z" style="fill: rgb(39, 241, 255); transform-origin: 285.275px 199.43px;" id="el97vxbw4sgte" class="animable"></path><polygon points="422.3 201.93 421.3 201.93 421.3 199.93 419.3 199.93 419.3 198.93 422.3 198.93 422.3 201.93" style="fill: rgb(39, 241, 255); transform-origin: 420.8px 200.43px;" id="el43epc8xya8j" class="animable"></polygon><path d="M422.3,262.87h-1V257.8h1Zm0-10.15h-1v-5.08h1Zm0-10.16h-1v-5.08h1Zm0-10.16h-1v-5.08h1Zm0-10.16h-1v-5.07h1Zm0-10.15h-1V207h1Z" style="fill: rgb(39, 241, 255); transform-origin: 421.8px 234.935px;" id="elu7d7cchz9" class="animable"></path><rect x="162.03" y="115.98" width="8.99" height="1.62" style="fill: rgb(235, 235, 235); transform-origin: 166.525px 116.79px;" id="elclktbluhgtp" class="animable"></rect><rect x="181.63" y="115.98" width="126.62" height="1.62" style="fill: rgb(235, 235, 235); transform-origin: 244.94px 116.79px;" id="el7jef9cyezjj" class="animable"></rect><rect x="313.77" y="115.98" width="17.07" height="1.62" style="fill: rgb(39, 241, 255); transform-origin: 322.305px 116.79px;" id="elst5nkfmiunf" class="animable"></rect><rect x="334.55" y="115.98" width="66.96" height="1.62" style="fill: rgb(166, 166, 166); transform-origin: 368.03px 116.79px;" id="el5lnyjy6yc89" class="animable"></rect><rect x="162.03" y="123.63" width="8.99" height="1.62" style="fill: rgb(235, 235, 235); transform-origin: 166.525px 124.44px;" id="elkekxnjmq0m" class="animable"></rect><rect x="190.39" y="123.63" width="67.66" height="1.62" style="fill: rgb(166, 166, 166); transform-origin: 224.22px 124.44px;" id="el94602zg09du" class="animable"></rect><rect x="190.39" y="131.28" width="45.34" height="1.62" style="fill: rgb(39, 241, 255); transform-origin: 213.06px 132.09px;" id="eln1cgyv00d4" class="animable"></rect><rect x="325.18" y="138.93" width="68.25" height="1.62" style="fill: rgb(166, 166, 166); transform-origin: 359.305px 139.74px;" id="el8owir4wxx3a" class="animable"></rect><rect x="240.76" y="131.28" width="95.92" height="1.62" style="fill: rgb(166, 166, 166); transform-origin: 288.72px 132.09px;" id="elgjy0ak7791d" class="animable"></rect><rect x="262.3" y="123.63" width="66.64" height="1.62" style="fill: rgb(235, 235, 235); transform-origin: 295.62px 124.44px;" id="elywnvmz0vp5k" class="animable"></rect><rect x="343.88" y="131.28" width="29.15" height="1.62" style="fill: rgb(235, 235, 235); transform-origin: 358.455px 132.09px;" id="el5czkmoul1fa" class="animable"></rect><rect x="162.03" y="131.28" width="8.99" height="1.62" style="fill: rgb(235, 235, 235); transform-origin: 166.525px 132.09px;" id="eluvpymzzwtl" class="animable"></rect><rect x="162.03" y="138.93" width="8.99" height="1.62" style="fill: rgb(166, 166, 166); transform-origin: 166.525px 139.74px;" id="eli0c9lgnjpl" class="animable"></rect><rect x="181.63" y="138.93" width="53.12" height="1.62" style="fill: rgb(235, 235, 235); transform-origin: 208.19px 139.74px;" id="els9nqgeyoxb" class="animable"></rect><rect x="240.15" y="138.93" width="80.86" height="1.62" style="fill: rgb(39, 241, 255); transform-origin: 280.58px 139.74px;" id="els7778xdvez" class="animable"></rect><rect x="181.63" y="207.1" width="64.63" height="1.62" style="fill: rgb(166, 166, 166); transform-origin: 213.945px 207.91px;" id="elkub025q5kbe" class="animable"></rect><rect x="273.47" y="222.41" width="29.67" height="1.62" style="fill: rgb(39, 241, 255); transform-origin: 288.305px 223.22px;" id="elv52esoph5yh" class="animable"></rect><rect x="190.39" y="237.71" width="45.34" height="1.62" style="fill: rgb(39, 241, 255); transform-origin: 213.06px 238.52px;" id="elth88y4vf6" class="animable"></rect><rect x="181.63" y="214.76" width="123.96" height="1.62" style="fill: rgb(39, 241, 255); transform-origin: 243.61px 215.57px;" id="eln1r3lyo9k7" class="animable"></rect><rect x="249.91" y="207.1" width="80.93" height="1.62" style="fill: rgb(235, 235, 235); transform-origin: 290.375px 207.91px;" id="elo76wtiefay9" class="animable"></rect><rect x="162.03" y="207.1" width="8.99" height="1.62" style="fill: rgb(235, 235, 235); transform-origin: 166.525px 207.91px;" id="else80d6w8tih" class="animable"></rect><rect x="162.03" y="222.41" width="8.99" height="1.62" style="fill: rgb(235, 235, 235); transform-origin: 166.525px 223.22px;" id="elxvu26mcyb5" class="animable"></rect><rect x="181.63" y="222.41" width="84.64" height="1.62" style="fill: rgb(235, 235, 235); transform-origin: 223.95px 223.22px;" id="elsojlw0yy7cd" class="animable"></rect><rect x="241.95" y="260.67" width="29.67" height="1.62" style="fill: rgb(39, 241, 255); transform-origin: 256.785px 261.48px;" id="elxr3d3fd76e" class="animable"></rect><rect x="181.63" y="260.67" width="53.12" height="1.62" style="fill: rgb(235, 235, 235); transform-origin: 208.19px 261.48px;" id="el41f572axjit" class="animable"></rect><rect x="162.03" y="230.06" width="8.99" height="1.62" style="fill: rgb(235, 235, 235); transform-origin: 166.525px 230.87px;" id="elduik7ew4oga" class="animable"></rect><rect x="190.39" y="230.06" width="67.66" height="1.62" style="fill: rgb(166, 166, 166); transform-origin: 224.22px 230.87px;" id="eljrh2kkg4tu9" class="animable"></rect><rect x="181.63" y="253.02" width="64.63" height="1.62" style="fill: rgb(166, 166, 166); transform-origin: 213.945px 253.83px;" id="eluoqovfkx0t" class="animable"></rect><rect x="240.76" y="237.71" width="95.92" height="1.62" style="fill: rgb(166, 166, 166); transform-origin: 288.72px 238.52px;" id="el1mo3mqk5i89" class="animable"></rect><rect x="329.33" y="245.37" width="29.1" height="1.62" style="fill: rgb(235, 235, 235); transform-origin: 343.88px 246.18px;" id="elh7t5j00v9zo" class="animable"></rect><rect x="162.03" y="237.71" width="8.99" height="1.62" style="fill: rgb(235, 235, 235); transform-origin: 166.525px 238.52px;" id="el59qg7fu2rsy" class="animable"></rect><rect x="162.03" y="245.37" width="8.99" height="1.62" style="fill: rgb(166, 166, 166); transform-origin: 166.525px 246.18px;" id="elesvi5suny0b" class="animable"></rect><rect x="162.03" y="253.02" width="8.99" height="1.62" style="fill: rgb(235, 235, 235); transform-origin: 166.525px 253.83px;" id="eljplrzzo44rg" class="animable"></rect><rect x="162.03" y="260.67" width="8.99" height="1.62" style="fill: rgb(235, 235, 235); transform-origin: 166.525px 261.48px;" id="el62kuv4szg" class="animable"></rect><rect x="181.63" y="245.37" width="53.12" height="1.62" style="fill: rgb(235, 235, 235); transform-origin: 208.19px 246.18px;" id="eljym31ufwou" class="animable"></rect><rect x="249.91" y="253.02" width="80.93" height="1.62" style="fill: rgb(235, 235, 235); transform-origin: 290.375px 253.83px;" id="elnu8obs2ruo" class="animable"></rect><rect x="240.15" y="245.37" width="80.86" height="1.62" style="fill: rgb(39, 241, 255); transform-origin: 280.58px 246.18px;" id="elyzgsyy78x4j" class="animable"></rect><path d="M166.39,100.17a.6.6,0,0,1,0,.87.63.63,0,0,1-.42.17.68.68,0,0,1-.45-.17l-2.72-2.76s0,0-.05-.06l0,0a.26.26,0,0,1,0-.08.05.05,0,0,1,0,0,.15.15,0,0,1,0-.06s0,0,0,0v-.25s0,0,0,0a.2.2,0,0,1,0-.07s0,0,0,0a.73.73,0,0,1,.05-.09,0,0,0,0,1,0,0,.19.19,0,0,1,.06-.07l2.72-2.76a.63.63,0,0,1,.87,0,.6.6,0,0,1,0,.87l-2.29,2.32Z" style="fill: rgb(39, 241, 255); transform-origin: 164.692px 97.9379px;" id="elmgfgwcxt48" class="animable"></path><path d="M168.86,100.48l2.37-5.65a.54.54,0,0,1,.71-.28.51.51,0,0,1,.27.68l-2.37,5.66a.53.53,0,0,1-.5.32.46.46,0,0,1-.19,0A.52.52,0,0,1,168.86,100.48Z" style="fill: rgb(39, 241, 255); transform-origin: 170.528px 97.8627px;" id="elrzmbotopkar" class="animable"></path><path d="M176.9,98.2h0a.46.46,0,0,1-.07.07L174.1,101a.66.66,0,0,1-.44.17.63.63,0,0,1-.43-.17.62.62,0,0,1,0-.87l2.29-2.32-2.29-2.32a.62.62,0,0,1,0-.87.63.63,0,0,1,.87,0l2.72,2.76a.46.46,0,0,1,.07.07s0,0,0,0a.9.9,0,0,1,0,.09s0,0,0,0a.26.26,0,0,0,0,.08s0,0,0,0v.07s0,0,0,0,0,0,0,.05V98s0,0,0,0a.41.41,0,0,0,0,.08s0,0,0,0Z" style="fill: rgb(39, 241, 255); transform-origin: 174.976px 97.8079px;" id="el3mjegotl2ku" class="animable"></path></g><g id="freepik--Code--inject-60" class="animable" style="transform-origin: 322.965px 180.13px;"><g id="ell47nhbpdb0h"><path d="M186.47,151.7h273a0,0,0,0,1,0,0v56.86a0,0,0,0,1,0,0H198.84a12.38,12.38,0,0,1-12.38-12.38V151.7A0,0,0,0,1,186.47,151.7Z" style="fill: rgb(55, 71, 79); transform-origin: 322.965px 180.13px; transform: rotate(-1.2deg);" class="animable"></path></g><g id="el3cmugcbm59"><rect x="381.89" y="158.63" width="57.62" height="1.62" style="fill: rgb(235, 235, 235); transform-origin: 410.7px 159.44px; transform: rotate(-1.2deg);" class="animable"></rect></g><g id="elaa8wcvnd3m9"><rect x="352.25" y="159.59" width="25.59" height="1.62" style="fill: rgb(166, 166, 166); transform-origin: 365.045px 160.4px; transform: rotate(-1.2deg);" class="animable"></rect></g><g id="el9wn3qde19us"><rect x="315.52" y="182.53" width="34.02" height="1.62" style="fill: rgb(166, 166, 166); transform-origin: 332.53px 183.34px; transform: rotate(-1.2deg);" class="animable"></rect></g><g id="elqx8bw2at2ib"><rect x="222.46" y="161.28" width="123.96" height="1.62" style="fill: rgb(39, 241, 255); transform-origin: 284.44px 162.09px; transform: rotate(-1.14576deg);" class="animable"></rect></g><g id="elfr9a30p7uxa"><rect x="231.39" y="169.49" width="53.12" height="1.62" style="fill: rgb(235, 235, 235); transform-origin: 257.95px 170.3px; transform: rotate(-1.14576deg);" class="animable"></rect></g><g id="eldckikqzukuo"><rect x="354.08" y="174.35" width="74.16" height="1.62" style="fill: rgb(39, 241, 255); transform-origin: 391.16px 175.16px; transform: rotate(-1.2deg);" class="animable"></rect></g><g id="elt682499s1"><rect x="279.57" y="175.96" width="69.88" height="1.62" style="fill: rgb(235, 235, 235); transform-origin: 314.51px 176.77px; transform: rotate(-1.2deg);" class="animable"></rect></g><g id="elvjxhidjtgme"><rect x="231.55" y="177.28" width="39.93" height="1.62" style="fill: rgb(166, 166, 166); transform-origin: 251.515px 178.09px; transform: rotate(-1.2deg);" class="animable"></rect></g><g id="elrs472yec44e"><rect x="202.88" y="162.9" width="8.99" height="1.62" style="fill: rgb(235, 235, 235); transform-origin: 207.375px 163.71px; transform: rotate(-1.2deg);" class="animable"></rect></g><g id="eljy18avvu4r"><rect x="203.04" y="170.55" width="8.99" height="1.62" style="fill: rgb(166, 166, 166); transform-origin: 207.535px 171.36px; transform: rotate(-1.2deg);" class="animable"></rect></g><g id="el0o0ykwepr0v9"><rect x="203.2" y="178.2" width="8.99" height="1.62" style="fill: rgb(235, 235, 235); transform-origin: 207.695px 179.01px; transform: rotate(-1.2deg);" class="animable"></rect></g><g id="eles4rt40b4ke"><rect x="203.35" y="185.15" width="8.99" height="1.62" style="fill: rgb(235, 235, 235); transform-origin: 207.845px 185.96px; transform: rotate(-1.14576deg);" class="animable"></rect></g><g id="elie40tboxa6c"><rect x="222.93" y="183.94" width="84.64" height="1.62" style="fill: rgb(235, 235, 235); transform-origin: 265.25px 184.75px; transform: rotate(-1.2deg);" class="animable"></rect></g><g id="eledhaxder28"><rect x="203.51" y="192.8" width="8.99" height="1.62" style="fill: rgb(235, 235, 235); transform-origin: 208.005px 193.61px; transform: rotate(-1.2deg);" class="animable"></rect></g><g id="el38bi0lf54ap"><rect x="231.85" y="191.59" width="67.66" height="1.62" style="fill: rgb(166, 166, 166); transform-origin: 265.68px 192.4px; transform: rotate(-1.2deg);" class="animable"></rect></g><g id="el3d6j0j5f47i"><rect x="232.02" y="199.47" width="45.34" height="1.62" style="fill: rgb(39, 241, 255); transform-origin: 254.69px 200.28px; transform: rotate(-1.2deg);" class="animable"></rect></g><g id="elv4ovx28h9xq"><rect x="282.37" y="197.89" width="95.92" height="1.62" style="fill: rgb(166, 166, 166); transform-origin: 330.33px 198.7px; transform: rotate(-1.2deg);" class="animable"></rect></g><g id="elrevukapvn7"><rect x="303.75" y="190.09" width="66.64" height="1.62" style="fill: rgb(235, 235, 235); transform-origin: 337.07px 190.9px; transform: rotate(-1.2deg);" class="animable"></rect></g><g id="elv5f5rj5rp6"><rect x="203.67" y="200.45" width="8.99" height="1.62" style="fill: rgb(235, 235, 235); transform-origin: 208.165px 201.26px; transform: rotate(-1.2deg);" class="animable"></rect></g><g id="el5tpckmbxprk"><path d="M202.26,211.1l-2.33.05a12.84,12.84,0,0,1-13.11-12.57,44.7,44.7,0,0,0,14.55.08S200.42,206.43,202.26,211.1Z" style="fill: rgb(255, 255, 255); opacity: 0.1; transform-origin: 194.54px 204.866px;" class="animable"></path></g></g><g id="freepik--Floor--inject-60" class="animable" style="transform-origin: 255.915px 460.574px;"><path d="M460.08,460.57c-130.8.62-277.53.62-408.33,0,130.8-.61,277.53-.61,408.33,0Z" style="fill: rgb(38, 50, 56); transform-origin: 255.915px 460.574px;" id="elly0922myx2l" class="animable"></path></g><g id="freepik--Plant--inject-60" class="animable" style="transform-origin: 410.672px 376.167px;"><path d="M413,371.35s-9.14-14-29.59-11.29c-19.43,2.58-31.52,36.63-12.69,42.62s18.49-26.6,26-31.41C402.28,367.74,409.59,369.3,413,371.35Z" style="fill: rgb(39, 241, 255); transform-origin: 387.15px 381.562px;" id="elitchxokfne7" class="animable"></path><path d="M366.17,377.64a38.2,38.2,0,0,1,4.43-2.77,17.63,17.63,0,0,1,4.6-1.78,27.74,27.74,0,0,1,2.93-3.11,26,26,0,0,1,6.5-4.24l-.59-.1c-1.06-.13-2.12-.24-3.19-.27a17.88,17.88,0,0,0-6.32,1c-.11,0-.18-.15-.06-.18a28,28,0,0,1,6.34-1.28,17.45,17.45,0,0,1,3.15,0c.56.06,1.12.15,1.67.26l.32,0a27.21,27.21,0,0,1,6-1.57l-.54-.21a29.83,29.83,0,0,0-2.92-.76,23.25,23.25,0,0,0-6-.48c-.12,0-.14-.19,0-.19a37.44,37.44,0,0,1,6.08.33,25.5,25.5,0,0,1,5,1.13,25.21,25.21,0,0,1,3.69-.07c7,.36,14.36,3.69,18.12,9.83s3.86,13.89,4,20.89a155.34,155.34,0,0,1-2,29.15c-.1.57-.9.39-.86-.15.51-8.25,1-16.51,1-24.77,0-3.83-.05-7.68-.32-11.5a33.5,33.5,0,0,0-1.87-9.62,17.11,17.11,0,0,0-6.07-7.9,22.94,22.94,0,0,0-9.29-3.85,25.72,25.72,0,0,0-9.05,0,5.85,5.85,0,0,1-.12,1.77,9.52,9.52,0,0,1-.65,2.15,10.53,10.53,0,0,1-1,1.86c-.43.65-1,1.22-1.43,1.84-.08.1-.23,0-.15-.13a9.11,9.11,0,0,0,1.93-3.79,15.44,15.44,0,0,0,.43-2c.08-.51.08-1,.15-1.55a26.5,26.5,0,0,0-9.17,3.79c-.52.34-1,.71-1.53,1.09a9.86,9.86,0,0,1,1.5,2.24,21.62,21.62,0,0,1,1.48,3.34,27,27,0,0,1,1.19,7.14c0,.12-.19.14-.19,0a20.37,20.37,0,0,0-1.66-6.81,25.94,25.94,0,0,0-1.49-3.1c-.29-.51-.6-1-.92-1.52-.17-.26-.36-.53-.52-.82a27.54,27.54,0,0,0-6.43,7.46s0,0,0,0a13.81,13.81,0,0,1,2,3.59,31,31,0,0,1,1.49,4.18,67.9,67.9,0,0,1,1.62,8.39c0,.12-.18.14-.2,0a34.11,34.11,0,0,0-2.07-8.3c-.48-1.31-1-2.61-1.54-3.89a32.93,32.93,0,0,1-1.55-3.68,25.7,25.7,0,0,0-3.16,9.06c0,.12-.21.08-.19,0a32.44,32.44,0,0,1,5.84-13.8c-1.28.41-2.55.79-3.79,1.32a19.91,19.91,0,0,0-4.44,2.53C366.18,377.87,366.07,377.71,366.17,377.64Z" style="fill: rgb(38, 50, 56); transform-origin: 392.782px 392.758px;" id="ely1zkugptxp" class="animable"></path><path d="M380.78,379.77c.41,2,1,4,1.34,6.07a22.47,22.47,0,0,1,.32,6c0,.06-.09.05-.09,0a57.09,57.09,0,0,0-1.76-12A.1.1,0,1,1,380.78,379.77Z" style="fill: rgb(38, 50, 56); transform-origin: 381.549px 385.793px;" id="elz3q6xr6d7xe" class="animable"></path><path d="M368.57,373.67A11,11,0,0,1,371.4,372a19.09,19.09,0,0,1,3.17-.79c.12,0,.14.17,0,.19a11.79,11.79,0,0,0-3.06.94,20.74,20.74,0,0,0-2.88,1.41C368.57,373.81,368.5,373.71,368.57,373.67Z" style="fill: rgb(38, 50, 56); transform-origin: 371.604px 372.489px;" id="el8x6u4tf57he" class="animable"></path><path d="M403.12,355.07s-1.92-23.51-19.4-31.14c-14.6-6.36-23,10-12.63,20.08C379.43,352.14,392.82,348.47,403.12,355.07Z" style="fill: rgb(39, 241, 255); transform-origin: 384.801px 338.786px;" id="elzbk7bpx1vu9" class="animable"></path><path d="M374.32,328.49a73.54,73.54,0,0,1,7.77,3.68,56.46,56.46,0,0,1,6,4c-.29-.6-.54-1.22-.84-1.8a30,30,0,0,0-1.48-2.66,24.88,24.88,0,0,0-3.85-4.87.1.1,0,0,1,.14-.14,39.55,39.55,0,0,1,4,4.72,28.13,28.13,0,0,1,1.66,2.66A10.87,10.87,0,0,1,389,336.8l.19.14a57.08,57.08,0,0,1,8.35,8.17c0-.23-.1-.46-.16-.67-.33-1.15-.68-2.29-1.06-3.42a28.84,28.84,0,0,0-3.16-6.86c-.06-.1.11-.2.17-.09a53.57,53.57,0,0,1,3.66,6.69,25,25,0,0,1,1.21,3.47,15.36,15.36,0,0,1,.57,2.36c.76,1,1.51,1.94,2.21,3,7.51,10.68,11.28,23.6,12.18,36.53a112,112,0,0,1,.19,11.59,71.79,71.79,0,0,1-1,11.62c-.05.25-.43.17-.42-.07.09-3.39.44-6.78.5-10.18a99.22,99.22,0,0,0-.33-10.2,94.56,94.56,0,0,0-3.81-20A71.25,71.25,0,0,0,399.37,350c-.73-.15-1.46-.35-2.19-.54s-1.75-.44-2.61-.69a25.68,25.68,0,0,1-4.88-1.78c-.11-.06,0-.23.1-.17a15.73,15.73,0,0,0,4.95,1.71c1.36.27,2.78.45,4.16.76-1.27-1.84-2.62-3.63-4.07-5.34a30.59,30.59,0,0,1-9.95-.74,40,40,0,0,1-5.09-1.59c-1.75-.67-3.4-1.54-5.13-2.26-.13-.06,0-.25.08-.17a29.24,29.24,0,0,0,10.08,3.3,62.15,62.15,0,0,0,9.43.77c-1.24-1.42-2.53-2.81-3.89-4.11-4.6-4.38-10.05-8.39-16.1-10.49C374.14,328.63,374.21,328.44,374.32,328.49Z" style="fill: rgb(38, 50, 56); transform-origin: 393.809px 368.081px;" id="elyyg95tox5wp" class="animable"></path><path d="M388.54,328.56a25.53,25.53,0,0,1,2.15,3.13,17.23,17.23,0,0,1,1.54,3.65s-.05.07-.07,0c-.58-1.15-1.08-2.35-1.67-3.5a17.58,17.58,0,0,0-2.08-3.18C388.33,328.6,388.47,328.46,388.54,328.56Z" style="fill: rgb(38, 50, 56); transform-origin: 390.308px 331.948px;" id="elvtukwarn8c" class="animable"></path><path d="M372.29,336.39a17.81,17.81,0,0,0,3.58,1.49,31.22,31.22,0,0,0,3.65,1,.06.06,0,0,1,0,.11,17.36,17.36,0,0,1-3.78-.83,32.13,32.13,0,0,1-3.54-1.59C372.08,336.5,372.18,336.33,372.29,336.39Z" style="fill: rgb(38, 50, 56); transform-origin: 375.851px 337.684px;" id="el12okd6gxvjd" class="animable"></path><path d="M415.75,351.6c.11,1,2.64-8.54,17.42-17,13.43-7.7,29.45-27.73,16.29-40.39C438.83,284,410.85,306.25,415.75,351.6Z" style="fill: rgb(39, 241, 255); transform-origin: 434.773px 321.718px;" id="elbhh5bwzzri8" class="animable"></path><path d="M405.57,406.37a261.57,261.57,0,0,1,2.35-29.72,133.94,133.94,0,0,1,6.24-26.6c1.1-3.11,2.36-6.17,3.72-9.18a20.62,20.62,0,0,1,.07-3.52c.07-1.5.2-3,.34-4.5s.29-3,.47-4.5.5-3,.56-4.49a.1.1,0,1,1,.19,0,31.66,31.66,0,0,0-.53,4.76c-.12,1.45-.2,2.9-.24,4.36s0,2.91,0,4.36c0,.53,0,1.08.05,1.64,1.39-2.93,2.88-5.83,4.49-8.64-1-6.13.3-12.54,1.55-18.53,0-.12.21-.06.18.06a52.15,52.15,0,0,0-1,9.5c-.06,2.51.06,5,.07,7.54.35-.6.71-1.2,1.07-1.8,1.92-3.13,4-6.2,6.14-9.17a14.56,14.56,0,0,1,.14-4.37,33.92,33.92,0,0,1,1.08-4.77c.47-1.57,1-3.1,1.63-4.62s1.5-3,2.11-4.58c.05-.13.25,0,.18.08a21.92,21.92,0,0,0-1.85,4.64,40.24,40.24,0,0,0-1.21,4.59c-.32,1.56-.57,3.12-.79,4.69-.15,1-.24,2.12-.42,3.17a112.25,112.25,0,0,1,10.35-12,.1.1,0,0,1,.14.13,136.69,136.69,0,0,0-15,20.45l-.48.82c.82-.51,1.75-.91,2.52-1.34q2.14-1.2,4.31-2.37c1.4-.75,2.79-1.52,4.19-2.29.71-.4,1.42-.81,2.15-1.18a17.36,17.36,0,0,0,2.5-1.39c.12-.09.24.09.12.15-1.43.78-2.68,1.95-4.06,2.82s-2.78,1.73-4.22,2.53c-2.63,1.47-5.48,2.52-8.07,4q-2.69,4.71-5,9.65,2.36-1.51,4.8-2.88c1.05-.59,2.1-1.16,3.16-1.72a15.55,15.55,0,0,0,3-1.8.1.1,0,0,1,.13.14,27.62,27.62,0,0,1-5.68,4c-1.9,1.11-3.82,2.18-5.79,3.15q-2.37,5.19-4.28,10.58c-6.22,17.61-8.51,36.31-9.6,54.89-.32,5.54-.49,11.07-.56,16.61s.22,11.07.21,16.61c0,.16-.27.2-.29,0-.67-4.91-.78-9.9-1-14.85S405.46,411.4,405.57,406.37Z" style="fill: rgb(38, 50, 56); transform-origin: 424.259px 368.005px;" id="elg6gk0z42yh8" class="animable"></path><path d="M432.43,326.62a72.84,72.84,0,0,0,7.85-4.06,83.89,83.89,0,0,0,7.46-4.74s.09,0,.05.07a63.36,63.36,0,0,1-7.16,5,72.75,72.75,0,0,1-8.11,3.89C432.41,326.84,432.32,326.66,432.43,326.62Z" style="fill: rgb(38, 50, 56); transform-origin: 440.09px 322.306px;" id="elle29rolhffo" class="animable"></path><path d="M428.15,306.7c.22-.86.49-1.7.78-2.54a.07.07,0,0,1,0-.1l.58-1.42a.87.87,0,0,1,.07-.17c0-.09.07-.18.11-.27s.05,0,0,0l-.14.5c0,.09,0,.17-.08.27a70.05,70.05,0,0,0-2.19,10c0,.11-.18.11-.17,0A33,33,0,0,1,428.15,306.7Z" style="fill: rgb(38, 50, 56); transform-origin: 428.417px 307.606px;" id="elk4oeylgl9zh" class="animable"></path><path d="M413.09,377.07c5.15-16,16.8-25.51,31.76-23.31s20,21.91,10,28.49-22.82-6.65-28.92-8.88S413.09,377.07,413.09,377.07Z" style="fill: rgb(39, 241, 255); transform-origin: 436.566px 368.757px;" id="elotwd62iy4gk" class="animable"></path><path d="M411.72,417.91c-.21-1.81-.4-3.62-.6-5.43q-.57-5.43-1.15-10.86c-.7-6.63-.91-13.2.95-19.66a30,30,0,0,1,9.65-15,24.61,24.61,0,0,1,5.7-3.48,14.4,14.4,0,0,1,6.53-4.91,29.22,29.22,0,0,1,10.07-1.69c.12,0,.14.19,0,.19a24.69,24.69,0,0,0-9.46,2,20.9,20.9,0,0,0-3.63,2.05,18.88,18.88,0,0,0-2,1.73,20.86,20.86,0,0,1,8.79-1.17,20.33,20.33,0,0,1,3.19.58,8.9,8.9,0,0,1,2.36-.55,14,14,0,0,1,3.17,0,23.64,23.64,0,0,1,6.28,1.74c.11,0,0,.22-.08.17a22.53,22.53,0,0,0-6.07-1.35,20.43,20.43,0,0,0-3,0,15.27,15.27,0,0,0-1.65.25,19.27,19.27,0,0,1,10.61,7.93c.06.1-.09.22-.16.11A17.6,17.6,0,0,0,438,362.84c-.33,0-.66,0-1,0a12.85,12.85,0,0,1,.36,1.42c.2.72.43,1.42.68,2.12a35.6,35.6,0,0,0,1.79,4.22,34.89,34.89,0,0,0,2.35,4,20.55,20.55,0,0,0,3,3.75.1.1,0,1,1-.14.13c-1.05-1.23-2.23-2.33-3.22-3.62a29.71,29.71,0,0,1-2.55-3.9,28.44,28.44,0,0,1-1.91-4.3c-.28-.79-.52-1.58-.73-2.38a5.81,5.81,0,0,1-.3-1.48,20.17,20.17,0,0,0-5.12.63c1.15,3.47,2.37,7.1,4.81,9.91.08.1-.08.22-.16.12a43.29,43.29,0,0,1-3.19-4.75,19.43,19.43,0,0,1-2-5.15,23.9,23.9,0,0,0-8,4,28.14,28.14,0,0,0-9.47,13.88,46.61,46.61,0,0,0-1.65,18.2c.61,7.71,1.61,15.43,1.93,23.16,0,.51-.74.79-.92.24A27.52,27.52,0,0,1,411.72,417.91Z" style="fill: rgb(38, 50, 56); transform-origin: 430.54px 390.11px;" id="el0qaxalcdwysn" class="animable"></path><path d="M421.44,365.65a8.94,8.94,0,0,1,1.44-1.76c.53-.58,1.07-1.14,1.65-1.67a13.87,13.87,0,0,1,3.86-2.51.1.1,0,0,1,.07.18,11.08,11.08,0,0,0-3.79,2.59c-.55.53-1.06,1.1-1.56,1.67a10.15,10.15,0,0,1-1.47,1.66C421.54,365.88,421.38,365.77,421.44,365.65Z" style="fill: rgb(38, 50, 56); transform-origin: 424.964px 362.771px;" id="elasu2rlnqqmu" class="animable"></path><path d="M445.46,367.77a44.73,44.73,0,0,1,4,3.94,26.3,26.3,0,0,1,3.18,4.57c0,.05-.05.09-.08.05a59,59,0,0,0-7.19-8.41C445.25,367.83,445.36,367.68,445.46,367.77Z" style="fill: rgb(38, 50, 56); transform-origin: 448.979px 372.044px;" id="eluwm8uxw845q" class="animable"></path><path d="M429.58,368.52a10.91,10.91,0,0,0,1.21,2.59,17.44,17.44,0,0,0,1.73,2.2c0,.05,0,.11-.08.07a9.81,9.81,0,0,1-3-4.79C429.37,368.47,429.54,368.4,429.58,368.52Z" style="fill: rgb(38, 50, 56); transform-origin: 430.972px 370.925px;" id="ell4mou381yt" class="animable"></path><polygon points="389.96 409.94 391.01 422.44 394.24 460.57 428.83 460.57 432.06 422.44 433.11 409.94 389.96 409.94" style="fill: rgb(69, 90, 100); transform-origin: 411.535px 435.255px;" id="elfdxsj77w1xp" class="animable"></polygon><polygon points="389.96 409.94 391.01 422.44 432.06 422.44 433.11 409.94 389.96 409.94" style="fill: rgb(38, 50, 56); transform-origin: 411.535px 416.19px;" id="eldk947qg2rj5" class="animable"></polygon><g id="el3sq9a0wtyzz"><rect x="386.56" y="404.93" width="49.94" height="11.99" style="fill: rgb(69, 90, 100); transform-origin: 411.53px 410.925px; transform: rotate(180deg);" class="animable"></rect></g></g><g id="freepik--Character--inject-60" class="animable" style="transform-origin: 166.825px 286.46px;"><path d="M178.39,461c-2.31.75-68.31-.11-70.8-1.74-1-.6-1.5-64.88-1.5-64.88l44.14.45-1.67,43s25.12,11.62,27.67,13.7S180.71,460.28,178.39,461Z" style="fill: rgb(247, 169, 160); transform-origin: 142.76px 427.827px;" id="elw3wwr8xs36" class="animable"></path><path d="M158.56,442.36q-.26-.08-.27-.15Z" style="fill: rgb(39, 241, 255); transform-origin: 158.425px 442.285px;" id="elxm5kbvsm9o" class="animable"></path><path d="M178.39,461c-2.31.74-68.3-.11-70.79-1.74-.33-.21-.61-8-.84-18,9.66,3.42,48.42,11.44,56.41,10.82,7.19-.56.68-6.35-1.17-7.88,6.43,3.08,13,6.35,14.23,7.36C178.76,453.62,180.71,460.28,178.39,461Z" style="fill: rgb(38, 50, 56); transform-origin: 143.093px 451.265px;" id="el887clx9se85" class="animable"></path><path d="M92.54,204.3s9.91,111.52,11.53,120c.37,1.93.6,12.47.75,26,.35,29.56.14,82.88.14,82.88h46.52S150.1,340.85,148,323.85,132.82,204.3,132.82,204.3Z" style="fill: rgb(55, 71, 79); transform-origin: 122.01px 318.74px;" id="ela4rib4njqf7" class="animable"></path><path d="M149.38,425.12c-7.26-.15-5.17-.21-12.43-.28-3.56,0-26.9-.23-30.22.32a.07.07,0,0,0,0,.14c3.32.55,26.66.35,30.22.32,7.26-.07,5.17-.13,12.43-.28A.11.11,0,0,0,149.38,425.12Z" style="fill: rgb(38, 50, 56); transform-origin: 128.075px 425.236px;" id="elsti0aiwlmdg" class="animable"></path><path d="M113.8,372.32l-.15-20.25c-.05-6.53,0-13.07-.35-19.6-.63-13.22-3.31-26.22-5.22-39.29s-3.5-26.2-4.94-39.34c-1.62-14.74-3-29.5-4.56-44.25a.08.08,0,0,0-.16,0c2.2,26.33,4.64,52.66,8.29,78.84q1.35,9.76,3,19.49c1.09,6.57,2.17,13.14,2.68,19.78s.59,13,.66,19.53q.11,10.11.2,20.23c.15,15,.29,38,.44,53a.23.23,0,0,0,.45,0C114,407.11,113.9,385.68,113.8,372.32Z" style="fill: rgb(38, 50, 56); transform-origin: 106.28px 315.076px;" id="elzi2sp2txgol" class="animable"></path><path d="M82.73,204.3s19.72,111.52,21.34,120c.37,1.93.6,12.47.75,26v0L127,204.3Z" style="fill: rgb(38, 50, 56); transform-origin: 104.865px 277.3px;" id="el9pok15ob4tc" class="animable"></path><path d="M122.7,468.43c-2.38.53-68-6.5-70.33-8.35-.9-.69,4.57-64.74,4.57-64.74l43.91,4.57-5.68,42.66s23.91,13.93,26.26,16.24S125.07,467.92,122.7,468.43Z" style="fill: rgb(247, 169, 160); transform-origin: 88.1147px 431.899px;" id="el070yexf5gn6n" class="animable"></path><path d="M104.7,448c-.17-.07-.25-.12-.26-.18Z" style="fill: rgb(39, 241, 255); transform-origin: 104.57px 447.91px;" id="ellh0mwx05scg" class="animable"></path><path d="M122.7,468.44c-2.38.53-68-6.51-70.33-8.36-.32-.25.17-8.58.94-19.19,10.28,4.56,46.59,15.81,54.45,16,5.43.11,3.41-3.5,1.36-6,5.71,3.45,11.24,6.89,12.31,7.95C123.75,461.1,125.07,467.92,122.7,468.44Z" style="fill: rgb(38, 50, 56); transform-origin: 88.1111px 454.679px;" id="elp68ahuvcyfi" class="animable"></path><path d="M98.23,435.74l-46.48-2s12.69-102,12.92-108.26c.35-9.32,4.82-47.78,8.58-78.92,0,0-7.12-16.86,6.2-42.33h53.41s-3.58,24.24-9.71,39.6a71.32,71.32,0,0,0-11.87,5.42s-5.32,69.44-5.52,78.1C105.37,344.5,98.23,435.74,98.23,435.74Z" style="fill: rgb(55, 71, 79); transform-origin: 92.305px 319.985px;" id="elizs58ko7n3" class="animable"></path><path d="M97,427.22c-7.24-.45-5.16-.42-12.41-.8-3.54-.19-26.86-1.38-30.2-1a.08.08,0,0,0,0,.15c3.3.69,26.63,1.47,30.18,1.59,7.26.24,5.18.09,12.44.25A.11.11,0,0,0,97,427.22Z" style="fill: rgb(38, 50, 56); transform-origin: 75.6989px 426.378px;" id="el65ylo6mic1r" class="animable"></path><path d="M125.18,242.81a88.64,88.64,0,0,0-13.9,6.47.16.16,0,0,0,.13.29c4.68-2,9.45-3.93,14-6.2A.31.31,0,0,0,125.18,242.81Z" style="fill: rgb(38, 50, 56); transform-origin: 118.373px 246.191px;" id="eltajr5st5xbo" class="animable"></path><path d="M126.67,210.68c0-.17-.3-.2-.3,0,0,5.56-.32,10.45-.78,15.65-.22,2.41-2.16,15.74-6.35,14.77-.7-.16-1-.85-1.16-1.91a16.43,16.43,0,0,1,.55-4.09c.47-2.79.84-5.59,1.08-8.4a76.35,76.35,0,0,0-.17-15.78.14.14,0,0,0-.27,0A146.67,146.67,0,0,1,118,232.68c-.53,3.47-2.27,8.69,1.35,9.22s6.09-8.2,6.54-10.59A80.53,80.53,0,0,0,126.67,210.68Z" style="fill: rgb(38, 50, 56); transform-origin: 122.058px 226.232px;" id="el6qraeu9tx7x" class="animable"></path><path d="M119.36,241.43a23.07,23.07,0,0,0-1,2.76,6.38,6.38,0,0,0-.39,2.27.16.16,0,0,0,.29.07,8.42,8.42,0,0,0,1-2.21c.31-.86.65-1.71.94-2.57A.46.46,0,0,0,119.36,241.43Z" style="fill: rgb(38, 50, 56); transform-origin: 119.087px 243.91px;" id="elol0siwxqw7" class="animable"></path><path d="M60.36,419c5.31-52.64,12.58-117.1,18.53-169.81l.09-.82a18.15,18.15,0,0,0-.57-2.34c-2.36-8.72-1.33-18,1.1-26.58a95.09,95.09,0,0,1,4.68-12.55,94.46,94.46,0,0,0-4.44,12.62c-2.24,8.56-3.13,17.73-.73,26.34a15.4,15.4,0,0,1,.61,2.52l-.07.84C74.07,302.06,66.77,366.46,60.36,419Z" style="fill: rgb(38, 50, 56); transform-origin: 72.275px 312.95px;" id="eldf18fsf1ag" class="animable"></path><path d="M133,134.1c.31,3.51.62,7,.77,10.56.1,2.16.05,4.28-.06,6.41a13.86,13.86,0,0,1-2.53,2.06c0-.54.07-1.08.09-1.61a74.28,74.28,0,0,0-.05-7.61c0-.09-.12-.07-.12,0,0,2.62-.15,5.26-.35,7.87q-.07.85-.18,1.71a19.55,19.55,0,0,1-2.71,1.34c.06-.62.11-1.25.17-1.86.13-1.44.22-2.88.28-4.33a76.21,76.21,0,0,0-.17-8.55c0-.12-.17-.09-.16,0,0,2.93,0,5.87-.2,8.8-.07,1.38-.17,2.77-.3,4.16-.06.66-.15,1.32-.23,2a32.69,32.69,0,0,1-5.29,1.46c-5.15,1-10.6.21-15.63-1.19a28.29,28.29,0,0,1-11.82-6.49A26.62,26.62,0,0,0,97.83,142c0-.07-.08-.12-.11-.05-.75,1.52-1.55,3-2.42,4.45-.4.67-.84,1.33-1.28,2l-.15-.14c-.32-.33-.66-.67-1-1A43.31,43.31,0,0,0,95.15,143a37.7,37.7,0,0,0,2.49-6.35.11.11,0,1,0-.2-.09c-1,2-1.84,4-2.82,6-.69,1.4-1.46,2.76-2.19,4.14a5.66,5.66,0,0,1-1.55-4.16,10.82,10.82,0,0,1,1.42-3.66,40.3,40.3,0,0,0,1.77-4c1.09-2.79,4.59-24.51,12.07-23.82,0-.07,8.92-9.51,19.88-3.11,12.17,7.11,11.16,33.73,10.79,36.58a11.19,11.19,0,0,1-2.42,5.71c.08-1.8,0-3.61,0-5.37-.17-3.65-.67-7.23-1.2-10.84A.09.09,0,0,0,133,134.1Z" style="fill: rgb(39, 241, 255); transform-origin: 113.937px 131.342px;" id="elzdx7jbdcxtn" class="animable"></path><g id="elk841xprhf5"><path d="M133,134.1c.31,3.51.62,7,.77,10.56.1,2.16.05,4.28-.06,6.41a13.86,13.86,0,0,1-2.53,2.06c0-.54.07-1.08.09-1.61a74.28,74.28,0,0,0-.05-7.61c0-.09-.12-.07-.12,0,0,2.62-.15,5.26-.35,7.87q-.07.85-.18,1.71a19.55,19.55,0,0,1-2.71,1.34c.06-.62.11-1.25.17-1.86.13-1.44.22-2.88.28-4.33a76.21,76.21,0,0,0-.17-8.55c0-.12-.17-.09-.16,0,0,2.93,0,5.87-.2,8.8-.07,1.38-.17,2.77-.3,4.16-.06.66-.15,1.32-.23,2a32.69,32.69,0,0,1-5.29,1.46c-5.15,1-10.6.21-15.63-1.19a28.29,28.29,0,0,1-11.82-6.49A26.62,26.62,0,0,0,97.83,142c0-.07-.08-.12-.11-.05-.75,1.52-1.55,3-2.42,4.45-.4.67-.84,1.33-1.28,2l-.15-.14c-.32-.33-.66-.67-1-1A43.31,43.31,0,0,0,95.15,143a37.7,37.7,0,0,0,2.49-6.35.11.11,0,1,0-.2-.09c-1,2-1.84,4-2.82,6-.69,1.4-1.46,2.76-2.19,4.14a5.66,5.66,0,0,1-1.55-4.16,10.82,10.82,0,0,1,1.42-3.66,40.3,40.3,0,0,0,1.77-4c1.09-2.79,4.59-24.51,12.07-23.82,0-.07,8.92-9.51,19.88-3.11,12.17,7.11,11.16,33.73,10.79,36.58a11.19,11.19,0,0,1-2.42,5.71c.08-1.8,0-3.61,0-5.37-.17-3.65-.67-7.23-1.2-10.84A.09.09,0,0,0,133,134.1Z" style="opacity: 0.6; transform-origin: 113.937px 131.342px;" class="animable"></path></g><path d="M108.23,156.44c3.79,12.38,23.36,44,36.07,46.66,10.23,2.16,38.14-.29,45.53-1.63,2.48-.46-1.88-29.56-4.8-29.56-6.88,0-28.68,7.84-34.57,5.69-2.32-.84-16-12.35-32.41-26.4C111.69,145.76,106,149.05,108.23,156.44Z" style="fill: rgb(247, 169, 160); transform-origin: 149.15px 176.226px;" id="elck9txoo5eyb" class="animable"></path><path d="M188,201.71c3.41-.24,19-2.71,23.12-4.36s15.82-7.28,14.88-10.61-4.49-1.94-4.49-1.94,4.55-3.16,3.3-6.42-6.7-.93-6.7-.93,4.43-3.58,2.95-6.74-6.57.09-6.57.09,4.21-3.09,1.89-5.18c-2.79-2.51-9.89,4-14.63,5.54-1.08.33-22.31,5.26-22.31,5.26Z" style="fill: rgb(247, 169, 160); transform-origin: 202.747px 183.38px;" id="elcesd35bmm1q" class="animable"></path><path d="M214.89,170.53c-5.24,4.81-8.37,6-15.26,7.27a.11.11,0,0,0,0,.22c6.86-.62,11-1.56,15.48-7.25C215.35,170.49,215.13,170.3,214.89,170.53Z" style="fill: rgb(38, 50, 56); transform-origin: 207.367px 174.224px;" id="el20b8jkugnpv" class="animable"></path><path d="M218.47,177.06c-5.88,4.53-9.26,5.86-16.38,7.7-.1,0-.06.2,0,.19,7.14-1.23,11.24-2.27,16.52-7.56C218.89,177.15,218.74,176.85,218.47,177.06Z" style="fill: rgb(38, 50, 56); transform-origin: 210.395px 180.97px;" id="el57qnijwdbhn" class="animable"></path><path d="M221.1,184.88c-6,4-9.65,5.59-16.79,6.5a.13.13,0,0,0,0,.26c7.37-.21,11.93-2.2,16.87-6.56C221.54,184.78,221.48,184.63,221.1,184.88Z" style="fill: rgb(38, 50, 56); transform-origin: 212.8px 188.197px;" id="el9q4cgu5jpn4" class="animable"></path><path d="M175,177.14s5.33-7.14,8.37-9.77,17.94-8.22,19.34-5.07c1.79,4.07-6.17,9-10.39,10.9,0,0,4.17,9.41-.79,14.19S175,177.14,175,177.14Z" style="fill: rgb(247, 169, 160); transform-origin: 188.984px 174.846px;" id="el18z583lijkr" class="animable"></path><path d="M202.81,163.58c-1,4.89-6.73,7-10.69,9.19a.41.41,0,0,0-.1.67c1.48,4.06,2.4,10.22-.23,13.95-.07.11.07.24.16.14,3.36-3.63,3-9.75,1.05-14.09,4.09-2.15,9.71-4.55,9.86-9.85A0,0,0,0,0,202.81,163.58Z" style="fill: rgb(38, 50, 56); transform-origin: 197.316px 175.573px;" id="elcm35d9n47t6" class="animable"></path><path d="M174.19,171.91l-.19,36s-21.83-.62-31.7-4.1-28-29.25-33.31-41-2.47-22.06,11.52-10.94,29.78,24.52,30.25,24.78S174.19,171.91,174.19,171.91Z" style="fill: rgb(199, 199, 199); transform-origin: 140.34px 177.509px;" id="elil6q4wi4z4" class="animable"></path><path d="M167,190.44c0-2.58.12-12.85.37-15.37,0-.07.1,0,.11,0,.24,2.55.33,12.88.32,15.46,0,5.16,0,10.35-.35,15.48a.08.08,0,1,1-.15,0C166.89,200.86,167,195.63,167,190.44Z" style="fill: rgb(38, 50, 56); transform-origin: 167.394px 190.578px;" id="elp0n9zh54thm" class="animable"></path><g id="elfqlg2v183zl"><path d="M159.92,207c-6.22-.61-13.15-1.59-17.62-3.17-9.88-3.48-28-29.26-33.3-41-4.51-10-3.13-19,6.09-14.49Z" style="opacity: 0.1; transform-origin: 133.215px 177.072px;" class="animable"></path></g><path d="M79.45,204.26c6.55.51,53.37,0,53.37,0l-2.59-13.9s4-6.73,2.8-12.88c-.77-3.81-5.22-11.05-9.27-17-.06-.07-.11-.16-.17-.23-3.27-4.8-6.24-8.7-6.76-9.22-4.36-4.49-11.13-5.17-17.1.62h0a1.14,1.14,0,0,0-.16.15c-.19.18-.38.38-.57.58a33.64,33.64,0,0,0-4.82,7.27l-.21.4a135.6,135.6,0,0,0-8.11,21.48c0,.1-.06.19-.09.28C80.46,199.56,79.45,204.26,79.45,204.26Z" style="fill: rgb(199, 199, 199); transform-origin: 106.352px 175.986px;" id="elzegpcl6gx9k" class="animable"></path><path d="M128.44,166.09a11.62,11.62,0,0,1,1.26,2.42,13.14,13.14,0,0,1,.41,1.3,5.14,5.14,0,0,1,.2,1.36c-.4-.83-.76-1.64-1.09-2.48A16,16,0,0,1,128.44,166.09Z" style="fill: rgb(38, 50, 56); transform-origin: 129.375px 168.63px;" id="el2yzuascqbfu" class="animable"></path><path d="M113.53,189.6a50.78,50.78,0,0,1,7.4.17c1.22.13,2.43.33,3.63.54.61.11,1.21.2,1.81.28a7.74,7.74,0,0,0,1.92.09,0,0,0,0,1,0,.09,13.82,13.82,0,0,1-1.8.22,12.89,12.89,0,0,1-1.76-.08c-1.24-.13-2.47-.31-3.71-.45-2.49-.28-5-.56-7.5-.65A.11.11,0,0,1,113.53,189.6Z" style="fill: rgb(38, 50, 56); transform-origin: 120.869px 190.265px;" id="elfhgtrl6h0de" class="animable"></path><path d="M107.81,192.61a50.93,50.93,0,0,1,6-1.14c1-.14,2-.21,3-.25l1.46,0c.53,0,1.07.06,1.6,0,.06,0,.07.08,0,.09-.51,0-1,.14-1.51.2l-1.52.17c-1,.12-2,.25-3,.36-2,.21-4,.45-6,.73A.08.08,0,0,1,107.81,192.61Z" style="fill: rgb(38, 50, 56); transform-origin: 113.832px 191.996px;" id="ele5solxc2x2k" class="animable"></path><path d="M105.67,149.13c.12,1.11,4.42,8.7,9.36,9.05,1.61.12,2.62-8.64,2.62-8.64l.22-.63,3.11-8.8-9.82-8.1-1.43-1.08s-.69,2.46-1.52,5.54l-.12.44c0,.17-.1.34-.14.5-.13.46-.26.93-.38,1.4s-.19.7-.27,1.08L107,141A61,61,0,0,0,105.67,149.13Z" style="fill: rgb(247, 169, 160); transform-origin: 113.325px 144.556px;" id="elr36rm8ou2uc" class="animable"></path><path d="M108.21,136.47a18.73,18.73,0,0,0,9.66,12.44l3.11-8.8-9.82-8.1-1.43-1.08S109,133.39,108.21,136.47Z" style="fill: rgb(38, 50, 56); transform-origin: 114.595px 139.92px;" id="elcynjwyruprc" class="animable"></path><path d="M134.5,125.27c2.91,16.13-6.43,19.69-9.91,20.32-3.16.56-14,2.09-18.54-13.66s2-22.2,9.17-23.87S131.59,109.13,134.5,125.27Z" style="fill: rgb(247, 169, 160); transform-origin: 119.801px 126.771px;" id="elhcku58tzbnm" class="animable"></path><path d="M131.72,122.89a8.47,8.47,0,0,1-1.13-.06,1.76,1.76,0,0,1-1.14-.28.56.56,0,0,1-.11-.7,1.44,1.44,0,0,1,1.35-.56,2.16,2.16,0,0,1,1.44.54A.62.62,0,0,1,131.72,122.89Z" style="fill: rgb(39, 241, 255); transform-origin: 130.789px 122.083px;" id="el3qttqbaxsxu" class="animable"></path><g id="elmhslaprxpb"><path d="M131.72,122.89a8.47,8.47,0,0,1-1.13-.06,1.76,1.76,0,0,1-1.14-.28.56.56,0,0,1-.11-.7,1.44,1.44,0,0,1,1.35-.56,2.16,2.16,0,0,1,1.44.54A.62.62,0,0,1,131.72,122.89Z" style="opacity: 0.6; transform-origin: 130.789px 122.083px;" class="animable"></path></g><path d="M120.61,124.61c.37-.11.7-.27,1.06-.41a1.86,1.86,0,0,0,1-.61.59.59,0,0,0-.11-.71,1.46,1.46,0,0,0-1.46-.11,2.11,2.11,0,0,0-1.2,1A.62.62,0,0,0,120.61,124.61Z" style="fill: rgb(39, 241, 255); transform-origin: 121.298px 123.625px;" id="elm6dzna6n8rg" class="animable"></path><g id="elib5ale928lk"><path d="M120.61,124.61c.37-.11.7-.27,1.06-.41a1.86,1.86,0,0,0,1-.61.59.59,0,0,0-.11-.71,1.46,1.46,0,0,0-1.46-.11,2.11,2.11,0,0,0-1.2,1A.62.62,0,0,0,120.61,124.61Z" style="opacity: 0.6; transform-origin: 121.298px 123.625px;" class="animable"></path></g><path d="M123.8,128.18s-.07.06-.06.11c.23,1.09.31,2.38-.61,2.93,0,0,0,.07,0,.05C124.33,130.88,124.2,129.17,123.8,128.18Z" style="fill: rgb(38, 50, 56); transform-origin: 123.606px 129.727px;" id="elqh66ltl77zs" class="animable"></path><path d="M122.61,127.21c-1.79.18-1.28,3.75.38,3.58S124.11,127.05,122.61,127.21Z" style="fill: rgb(38, 50, 56); transform-origin: 122.747px 129px;" id="elnjcgb4p8omo" class="animable"></path><path d="M121.94,127.49c-.28.25-.54.65-.91.74s-.81-.22-1.14-.54c0,0-.06,0-.06,0,.09.68.45,1.35,1.2,1.35s1.07-.68,1.15-1.39C122.19,127.57,122.05,127.4,121.94,127.49Z" style="fill: rgb(38, 50, 56); transform-origin: 121.005px 128.252px;" id="elxewpbgc5ewg" class="animable"></path><path d="M129.91,127.07s.1,0,.1.09c.11,1.11.43,2.36,1.48,2.6,0,0,0,.06,0,.06C130.24,129.81,129.84,128.14,129.91,127.07Z" style="fill: rgb(38, 50, 56); transform-origin: 130.696px 128.445px;" id="el8pj66xfndqn" class="animable"></path><path d="M130.75,125.79c1.76-.38,2.37,3.17.74,3.52S129.27,126.1,130.75,125.79Z" style="fill: rgb(38, 50, 56); transform-origin: 131.171px 127.548px;" id="elol39v0ioj4i" class="animable"></path><path d="M131.53,125.89c.31.14.65.43,1,.4s.61-.48.79-.89c0,0,.06,0,.07,0,.13.67,0,1.42-.6,1.66s-1.11-.28-1.39-.93C131.34,126,131.4,125.83,131.53,125.89Z" style="fill: rgb(38, 50, 56); transform-origin: 132.406px 126.26px;" id="elpqd048wxfm" class="animable"></path><path d="M125,137.27c.29.23.59.56,1,.56a3,3,0,0,0,1.16-.39s.08,0,.06.05a1.52,1.52,0,0,1-1.35.74,1.19,1.19,0,0,1-1-.9C124.83,137.26,124.92,137.23,125,137.27Z" style="fill: rgb(38, 50, 56); transform-origin: 126.042px 137.741px;" id="elyn9gqupyydm" class="animable"></path><path d="M129,132.57s.48,1.61.6,2.39c0,.07-.17.14-.43.19h0a3.75,3.75,0,0,1-3.8-.83c-.07-.07,0-.16.1-.13a5.57,5.57,0,0,0,3.52.45c0-.22-.92-2.73-.8-2.76A7,7,0,0,1,130,132c-.9-3.39-2.34-6.61-3.19-10a.1.1,0,0,1,.19-.08,56.45,56.45,0,0,1,3.9,10.62C131,133,129.29,132.65,129,132.57Z" style="fill: rgb(38, 50, 56); transform-origin: 128.123px 128.605px;" id="elyu4cbrhtb8" class="animable"></path><path d="M107.37,132.39c3.08,0,3-7,3-7S123,121.6,122.84,111A17.93,17.93,0,0,0,133,119.59s-1.86-11.47-11.27-12.59c0,0-11.84-2.75-17.12,7S105.31,132.38,107.37,132.39Z" style="fill: rgb(39, 241, 255); transform-origin: 117.743px 119.516px;" id="ellfg35ytw6vm" class="animable"></path><path d="M122.79,110.17a11.75,11.75,0,0,1,0,4.87,12,12,0,0,1-1.92,4.54,9,9,0,0,1-.77,1l-.39.48-.45.43c-.31.28-.6.57-.92.83s-.67.48-1,.72l-.51.34-.54.29-1.09.58c-.75.31-1.52.58-2.28.84.7-.41,1.43-.75,2.12-1.16l1-.65.5-.33.46-.37c.31-.26.61-.51.93-.75s.55-.56.83-.83l.42-.42.37-.46a9.14,9.14,0,0,0,.71-.93,13.92,13.92,0,0,0,2-4.26,15.35,15.35,0,0,0,.45-2.34A14.74,14.74,0,0,0,122.79,110.17Z" style="fill: rgb(39, 241, 255); transform-origin: 117.983px 117.63px;" id="elllrih0k359" class="animable"></path><g id="elvukzdcccli"><g style="opacity: 0.6; transform-origin: 117.743px 119.516px;" class="animable"><path d="M107.37,132.39c3.08,0,3-7,3-7S123,121.6,122.84,111A17.93,17.93,0,0,0,133,119.59s-1.86-11.47-11.27-12.59c0,0-11.84-2.75-17.12,7S105.31,132.38,107.37,132.39Z" id="elft7h8i6xofu" class="animable" style="transform-origin: 117.743px 119.516px;"></path><path d="M122.79,110.17a11.75,11.75,0,0,1,0,4.87,12,12,0,0,1-1.92,4.54,9,9,0,0,1-.77,1l-.39.48-.45.43c-.31.28-.6.57-.92.83s-.67.48-1,.72l-.51.34-.54.29-1.09.58c-.75.31-1.52.58-2.28.84.7-.41,1.43-.75,2.12-1.16l1-.65.5-.33.46-.37c.31-.26.61-.51.93-.75s.55-.56.83-.83l.42-.42.37-.46a9.14,9.14,0,0,0,.71-.93,13.92,13.92,0,0,0,2-4.26,15.35,15.35,0,0,0,.45-2.34A14.74,14.74,0,0,0,122.79,110.17Z" id="el2e85jimkg29" class="animable" style="transform-origin: 117.983px 117.63px;"></path></g></g><path d="M107.09,137.88a3.26,3.26,0,0,0,.77.13,2.7,2.7,0,0,0,.77,0,2.27,2.27,0,0,0,.92-.39,2.93,2.93,0,0,0,.57-.53,3.14,3.14,0,0,0,.53-1l-1.3-4.28s-4-4.76-6.23-3.28S104.28,137.13,107.09,137.88Z" style="fill: rgb(247, 169, 160); transform-origin: 106.524px 133.141px;" id="elsa1mfqf9u3" class="animable"></path><path d="M104.13,130.52s0,.06,0,.08c2,.59,3.14,2.26,4,4a1.52,1.52,0,0,0-2.31-.21.06.06,0,0,0,.06.1,1.69,1.69,0,0,1,1.92.42,8.12,8.12,0,0,1,1,1.43c.11.16.41,0,.32-.15l0,0C109,133.75,106.76,130.53,104.13,130.52Z" style="fill: rgb(38, 50, 56); transform-origin: 106.633px 133.463px;" id="elkvctjdog85" class="animable"></path><path d="M107.25,137.18a.76.76,0,1,0,.51-1A.77.77,0,0,0,107.25,137.18Z" style="fill: rgb(255, 255, 255); transform-origin: 107.963px 136.913px;" id="elfye1mxa74gi" class="animable"></path><path d="M105.59,136.18a.55.55,0,0,0,.67.36.54.54,0,1,0-.31-1A.54.54,0,0,0,105.59,136.18Z" style="fill: rgb(255, 255, 255); transform-origin: 106.173px 136.01px;" id="el31oiwuale6m" class="animable"></path><path d="M155.6,161.22a21.87,21.87,0,1,1-30.82-2.7A21.91,21.91,0,0,1,155.6,161.22Zm-8.93,7.49a10.22,10.22,0,1,0-1.26,14.4A10.23,10.23,0,0,0,146.67,168.71Z" style="fill: rgb(39, 241, 255); transform-origin: 138.841px 175.279px;" id="el6r316tiuzku" class="animable"></path><path d="M154.26,168.69l127.64-9.75s-7.68,21.22-19.79,26.72c-13.91,6.31-71.78,3.52-71.78,3.52a6.44,6.44,0,0,1-4.67-2l-3.94-4.11a6.4,6.4,0,0,0-4.39-2l-23.22-.9Z" style="fill: rgb(39, 241, 255); transform-origin: 218.005px 174.367px;" id="elumyl0xvummc" class="animable"></path><g id="ellsde88oxu5"><g style="opacity: 0.2; transform-origin: 199.435px 175.279px;" class="animable"><path d="M155.6,161.22a21.87,21.87,0,1,1-30.82-2.7A21.91,21.91,0,0,1,155.6,161.22Zm-8.93,7.49a10.22,10.22,0,1,0-1.26,14.4A10.23,10.23,0,0,0,146.67,168.71Z" id="elqjqomtotm1" class="animable" style="transform-origin: 138.841px 175.279px;"></path><path d="M154.26,168.69l127.64-9.75s-7.68,21.22-19.79,26.72c-13.91,6.31-71.78,3.52-71.78,3.52a6.44,6.44,0,0,1-4.67-2l-3.94-4.11a6.4,6.4,0,0,0-4.39-2l-23.22-.9Z" id="elctz06c9z5mc" class="animable" style="transform-origin: 218.005px 174.367px;"></path></g></g><path d="M164.82,235.62a21.87,21.87,0,1,1,15.52-26.76A21.89,21.89,0,0,1,164.82,235.62Zm-8.25-31a10.22,10.22,0,1,0,12.51,7.25A10.23,10.23,0,0,0,156.57,204.61Z" style="fill: rgb(39, 241, 255); transform-origin: 159.203px 214.483px;" id="el64e6wyz59rr" class="animable"></path><path d="M173.46,205.66l81.39-98.8s-21.77-5.93-33.24.82c-13.16,7.74-44.16,56.69-44.16,56.69a6.43,6.43,0,0,0-1.07,5l1.11,5.59a6.46,6.46,0,0,1-.91,4.73L164,199.16Z" style="fill: rgb(39, 241, 255); transform-origin: 209.425px 155.056px;" id="el9fvznye2aft" class="animable"></path><g id="elqdv5lyrrcxf"><g style="opacity: 0.1; transform-origin: 196.093px 170.402px;" class="animable"><path d="M164.82,235.62a21.87,21.87,0,1,1,15.52-26.76A21.89,21.89,0,0,1,164.82,235.62Zm-8.25-31a10.22,10.22,0,1,0,12.51,7.25A10.23,10.23,0,0,0,156.57,204.61Z" id="elfuid8jnbynu" class="animable" style="transform-origin: 159.203px 214.483px;"></path><path d="M173.46,205.66l81.39-98.8s-21.77-5.93-33.24.82c-13.16,7.74-44.16,56.69-44.16,56.69a6.43,6.43,0,0,0-1.07,5l1.11,5.59a6.46,6.46,0,0,1-.91,4.73L164,199.16Z" id="el9p8x0myw5km" class="animable" style="transform-origin: 209.425px 155.056px;"></path></g></g><g id="elz7aseq0vqce"><path d="M190.58,172.43a4.26,4.26,0,0,1-7.56,3.92,4.26,4.26,0,0,1,7.56-3.92Zm0,0a3.81,3.81,0,0,0-6.76,3.51,3.81,3.81,0,0,0,6.76-3.51Z" style="opacity: 0.2; transform-origin: 186.8px 174.39px;" class="animable"></path></g><path d="M237.89,107.23c-6.68,1-13.13,3.45-17.92,8.2s-9.1,10-13.59,15.12c-3,3.43-6,6.85-9.06,10.2A176.38,176.38,0,0,1,213.86,119c3.1-3.38,6.36-6.93,10.6-8.91a28.51,28.51,0,0,1,13.43-2.85Z" style="fill: rgb(255, 255, 255); transform-origin: 217.605px 123.987px;" id="elbv7514mxp3p" class="animable"></path><path d="M141.24,217.67c-2.29-9.43,4.53-19.6,13.94-21.56a21.2,21.2,0,0,1,6.45-.5c-11.93.38-21.52,9.93-20.39,22.06Z" style="fill: rgb(255, 255, 255); transform-origin: 151.212px 206.61px;" id="elfapqcip55u5" class="animable"></path><path d="M122.66,165.44c3.38-7,12.05-10.75,19.56-9.16-7.51-.09-15,3.06-19.56,9.16Z" style="fill: rgb(255, 255, 255); transform-origin: 132.44px 160.679px;" id="elc10p1iauqug" class="animable"></path><path d="M98.1,153.1c-11.52,13.38-34,45.42-27.84,53.3,10.13,13,35.81,25.41,43.9,28,3.52,1.14,17.45-23.89,14.21-26.17-3.89-2.74-31.65-13.54-31.39-15.95.15-1.37,4-12.65,7.49-27.22C108.57,148.16,103.59,146.72,98.1,153.1Z" style="fill: rgb(247, 169, 160); transform-origin: 99.0327px 192.02px;" id="elkizyy4hsou" class="animable"></path><path d="M115.55,205.79s11-2.64,18.2-4c4-.78,11.09-1.48,14.32-.69,4.83,1.18,24.28,9.21,22.44,14-1.67,4.3-17.51-4.72-17.51-4.72s16.78,7.69,13.82,12.51-19.5-7.76-19.5-7.76,17.07,8.29,13.22,12.77c-2.9,3.39-18.52-7.15-18.52-7.15s14.62,7.22,11.78,10.84c-3.13,4-18.16-4.84-18.16-4.84-8.75,8-16.17,8.54-21.48,7.7C112.88,234.2,115.55,205.79,115.55,205.79Z" style="fill: rgb(247, 169, 160); transform-origin: 142.223px 217.747px;" id="elzrk2pdnzz9n" class="animable"></path><path d="M147.37,207.3c2,.83,4,1.66,6,2.67s3.81,2.08,5.63,3.26a36.94,36.94,0,0,1,6.65,5.28c-3.82-3.3-10.65-7-12.57-8s-3.79-2.11-5.71-3.12C147.28,207.35,147.32,207.28,147.37,207.3Z" style="fill: rgb(38, 50, 56); transform-origin: 156.483px 212.903px;" id="eldevj9s2q07o" class="animable"></path><path d="M143.61,214.18c3,1,8.63,3.75,14.53,7.68.17.12.06.17-.13.07-2.41-1.35-12.3-6.35-14.44-7.69C143.54,214.21,143.57,214.17,143.61,214.18Z" style="fill: rgb(38, 50, 56); transform-origin: 150.891px 218.081px;" id="el3jrk3oj2pha" class="animable"></path><path d="M139.31,219.5a47.3,47.3,0,0,1,10.54,5.81c.18.12,0,.17-.17.07-3.42-1.92-5.84-3.1-10.42-5.74C139.19,219.6,139.23,219.47,139.31,219.5Z" style="fill: rgb(38, 50, 56); transform-origin: 144.574px 222.464px;" id="elpze1hgo0i9k" class="animable"></path><path d="M119.19,203.19l-17.82,33.07s-28-20.59-32.58-31c-4.11-9.36,21.55-44.32,27.4-51.08s11.23-7.58,9.76,4.34-8,33.23-8.07,33.57S119.19,203.19,119.19,203.19Z" style="fill: rgb(199, 199, 199); transform-origin: 93.7683px 192.771px;" id="el5gvqajbhncp" class="animable"></path><path d="M103.92,215.46c1.3-2.51,6.64-12.43,8.18-14.74.05-.07.14,0,.12.07-1,2.62-6.17,12.73-7.49,15.23-2.62,5-5.2,10.09-8.22,14.87a.09.09,0,0,1-.17-.08C98.57,225.57,101.29,220.51,103.92,215.46Z" style="fill: rgb(38, 50, 56); transform-origin: 104.277px 215.817px;" id="el377a3nbzg19" class="animable"></path><path d="M101.23,179c1.2-4.49,2.31-9,3.42-13.5,0-.09.17-.05.15,0-.4,2.57-.9,5.11-1.45,7.64.51-1.28,1-2.59,1.45-3.9,0-.1.17,0,.15.06a26.88,26.88,0,0,1-1.87,5.05c-.35,1.53-.72,3.07-1.11,4.6-.57,2.23-3.33,12-3.72,13.11,3.73,1.6,7,3.47,10.62,5.28q2.67,1.33,5.3,2.71a49.82,49.82,0,0,1,5.39,2.83c.1.07-.27.52-.41.75s-.23.07-.19,0l.12-.32c-.89-.31-4.4-2.11-5.31-2.56l-5.32-2.66c-3.61-1.81-11.08-5.55-11.07-5.61C97.55,191.41,100.62,181.26,101.23,179Z" style="fill: rgb(38, 50, 56); transform-origin: 108.478px 184.598px;" id="el48zwh5j3287" class="animable"></path></g><defs>     <filter id="active" height="200%">         <feMorphology in="SourceAlpha" result="DILATED" operator="dilate" radius="2"></feMorphology>                <feFlood flood-color="#32DFEC" flood-opacity="1" result="PINK"></feFlood>        <feComposite in="PINK" in2="DILATED" operator="in" result="OUTLINE"></feComposite>        <feMerge>            <feMergeNode in="OUTLINE"></feMergeNode>            <feMergeNode in="SourceGraphic"></feMergeNode>        </feMerge>    </filter>    <filter id="hover" height="200%">        <feMorphology in="SourceAlpha" result="DILATED" operator="dilate" radius="2"></feMorphology>                <feFlood flood-color="#ff0000" flood-opacity="0.5" result="PINK"></feFlood>        <feComposite in="PINK" in2="DILATED" operator="in" result="OUTLINE"></feComposite>        <feMerge>            <feMergeNode in="OUTLINE"></feMergeNode>            <feMergeNode in="SourceGraphic"></feMergeNode>        </feMerge>            <feColorMatrix type="matrix" values="0   0   0   0   0                0   1   0   0   0                0   0   0   0   0                0   0   0   1   0 "></feColorMatrix>    </filter></defs></svg>